<svg xmlns="http://www.w3.org/2000/svg" width="78" height="33" viewBox="0 0 78 33"><g><g><path fill="#bbbcbe" d="M10.482 6.547c-.182-1.454.53-2.999 1.363-3.953.91-1.105 2.5-1.893 3.787-1.954.151 1.515-.44 3-1.333 4.106-.909 1.075-2.363 1.922-3.817 1.801zm5.134.288c.818.061 3.181.303 4.696 2.545-.12.091-2.803 1.636-2.772 4.877.03 3.877 3.393 5.165 3.423 5.196-.03.09-.53 1.832-1.757 3.62-1.075 1.575-2.18 3.12-3.938 3.15-1.697.03-2.257-1.016-4.21-1.016-1.94 0-2.575.986-4.18 1.046-1.698.061-2.985-1.666-4.06-3.24C.621 19.83-1.06 14.044 1.212 10.136c1.106-1.954 3.12-3.18 5.286-3.21 1.666-.03 3.196 1.105 4.211 1.105 1 0 2.802-1.318 4.907-1.197zM36.64 2.443c4.575 0 7.771 3.15 7.771 7.755 0 4.604-3.257 7.785-7.892 7.785h-5.073v8.073H27.78V2.443zM31.445 14.91h4.21c3.196 0 5.014-1.712 5.014-4.696s-1.818-4.68-4.999-4.68h-4.225zm19.66 11.33c-3.408 0-5.786-2.03-5.786-5.09 0-3.029 2.302-4.772 6.558-5.028l4.574-.274v-1.302c0-1.923-1.257-2.968-3.499-2.968-1.848 0-3.195.954-3.468 2.408h-3.302c.106-3.06 2.984-5.286 6.876-5.286 4.196 0 6.922 2.196 6.922 5.603v11.754h-3.393v-2.832h-.076c-.969 1.848-3.105 3.014-5.407 3.014zm.984-2.803c2.484 0 4.362-1.575 4.362-3.787v-1.333l-4.074.258c-2.287.136-3.484 1-3.484 2.484 0 1.44 1.242 2.378 3.196 2.378zm12.42 9.042c-.273 0-1.182-.03-1.394-.09v-2.833c.227.03.788.061 1.076.061 1.621 0 2.53-.682 3.09-2.454l.333-1.045-6.21-17.192h3.832l4.316 13.95h.077l4.316-13.95h3.726L71.234 26.98c-1.469 4.135-3.15 5.498-6.725 5.498z"/></g></g></svg>