<svg xmlns="http://www.w3.org/2000/svg" width="74" height="30" viewBox="0 0 74 30"><g><g><path fill="#bbbcbe" d="M44.098 3.948a5.834 5.834 0 0 1 1.931 4.423 5.811 5.811 0 0 1-1.93 4.447c-1.249 1.19-2.79 1.784-4.623 1.783h-4.448v8.487h-2.69V2.134h7.138a6.46 6.46 0 0 1 4.622 1.814zm-1.893 6.997a3.571 3.571 0 0 0 .071-5.05l-.07-.071a3.507 3.507 0 0 0-2.664-1.111h-4.514v7.315h4.514a3.553 3.553 0 0 0 2.663-1.083z"/></g><g><path fill="#bbbcbe" d="M52.232 8.284c1.989 0 3.56.531 4.712 1.595 1.15 1.063 1.725 2.521 1.724 4.373v8.836h-2.574v-1.99h-.117c-1.114 1.64-2.597 2.458-4.447 2.458-1.58 0-2.901-.468-3.964-1.404a4.485 4.485 0 0 1-1.595-3.512c0-1.483.56-2.663 1.682-3.539 1.12-.876 2.618-1.315 4.49-1.317 1.598 0 2.915.293 3.949.878v-.616a3.064 3.064 0 0 0-1.111-2.382 3.816 3.816 0 0 0-2.6-.982c-1.502 0-2.692.635-3.568 1.904l-2.37-1.494c1.303-1.873 3.233-2.808 5.789-2.808zM54.76 19.9c.893-.84 1.338-1.824 1.338-2.955-.84-.668-2.01-1.003-3.511-1.003-1.094 0-2.005.264-2.735.791-.738.535-1.104 1.186-1.104 1.966a2.15 2.15 0 0 0 .893 1.756 3.295 3.295 0 0 0 2.092.702A4.292 4.292 0 0 0 54.76 19.9z"/></g><g><path fill="#bbbcbe" d="M70.517 8.752L66.363 19.05h-.06l-4.27-10.3h-2.926l5.91 13.43-3.336 7.227h2.779l8.988-20.656z"/></g><g><path fill="#bbbcbe" d="M12.592 10.327v4.636h6.502a5.578 5.578 0 0 1-2.404 3.658v.002c-1.08.73-2.471 1.149-4.098 1.149-3.14 0-5.805-2.116-6.758-4.968a7.21 7.21 0 0 1 0-4.608c.953-2.851 3.618-4.97 6.758-4.97a6.533 6.533 0 0 1 4.617 1.807l3.437-3.435A11.57 11.57 0 0 0 12.592.463 12.036 12.036 0 0 0 1.837 17.905a12.036 12.036 0 0 0 10.755 6.633c3.248 0 5.983-1.067 7.979-2.906l-.003-.002h.003c2.27-2.095 3.58-5.193 3.58-8.856.002-.82-.068-1.638-.207-2.447z"/></g></g></svg>