<svg xmlns="http://www.w3.org/2000/svg" width="89" height="93" viewBox="0 0 89 93"><g><g><path fill="#312F8A" d="M44.514 92.488C22.927 92.488.83 77.01.83 46.436.83 14.847 22.927.12 44.514.12c21.72 0 43.694 16.353 43.694 46.682 0 30.582-22.096 45.686-43.694 45.686z"/></g><g><path fill="#fff" d="M34.611 47.866c-.015-2.584-1.893-3.978-3.75-3.978-1.854 0-3.75 1.265-3.75 3.978v7.558c.015 2.604 1.903 3.923 3.75 3.923 1.854 0 3.751-1.296 3.751-3.923v-7.558z"/></g><g><path fill="#fff" d="M48.269 38.583c-.016-2.583-1.893-3.977-3.75-3.977-1.854 0-3.752 1.265-3.752 3.977v25.803h.002c.015 2.604 1.903 3.923 3.75 3.923 1.854 0 3.751-1.297 3.751-3.923V38.583z"/></g><g><path fill="#fff" d="M61.927 44.526c-.016-2.583-1.894-3.977-3.751-3.977-1.853 0-3.751 1.265-3.751 3.977v12.86h.002c.015 2.603 1.903 3.922 3.749 3.922 1.855 0 3.752-1.297 3.752-3.923V44.526z"/></g><g opacity=".3"><g opacity=".3"><path fill="#fff" d="M34.611 36.957c-.015-2.583-1.893-3.977-3.75-3.977-1.854 0-3.75 1.265-3.75 3.977v7.56c.015 2.603 1.903 3.921 3.75 3.921 1.854 0 3.751-1.296 3.751-3.922v-7.559z"/></g></g><g opacity=".3"><g opacity=".3"><path fill="#fff" d="M48.269 27.675c-.016-2.583-1.893-3.977-3.75-3.977-1.854 0-3.752 1.265-3.752 3.977v25.803h.002c.015 2.604 1.903 3.923 3.75 3.923 1.854 0 3.751-1.297 3.751-3.923V27.675z"/></g></g><g opacity=".3"><g opacity=".3"><path fill="#fff" d="M61.927 33.618c-.016-2.584-1.894-3.978-3.751-3.978-1.853 0-3.751 1.265-3.751 3.978v12.86h.002c.015 2.603 1.903 3.922 3.749 3.922 1.855 0 3.752-1.297 3.752-3.923V33.618z"/></g></g></g></svg>