<svg xmlns="http://www.w3.org/2000/svg" width="88" height="93" viewBox="0 0 88 93"><g><g><path fill="#312F8A" d="M43.668 92.488C22.08 92.488-.016 77.01-.016 46.436-.016 14.847 22.08.12 43.668.12c21.72 0 43.693 16.353 43.693 46.682 0 30.582-22.095 45.686-43.693 45.686z"/></g><g opacity=".3"><g opacity=".3"><path fill="#fff" d="M43.636 29.654c11.421 0 17.396 8.223 17.396 16.65 0 8.22-6.133 16.65-17.499 16.65-11.306 0-17.22-8.225-17.22-16.65 0-8.22 6.071-16.65 17.323-16.65zm.025 25.797c6.505 0 9.917-4.707 9.917-9.148 0-4.414-3.173-9.146-9.948-9.146-6.558 0-9.864 4.732-9.864 9.146 0 4.416 3.335 9.148 9.895 9.148z"/></g></g><g><path fill="#fff" d="M30.015 50.27c-1.854 0-3.751-1.329-3.751-3.955 0-2.712 1.897-3.977 3.75-3.977 1.866 0 3.753 1.405 3.753 4.01 0 2.625-1.898 3.922-3.752 3.922z"/></g><g><path fill="#fff" d="M43.672 50.27c-1.854 0-3.751-1.329-3.751-3.955 0-2.712 1.897-3.977 3.75-3.977 1.866 0 3.753 1.405 3.753 4.01 0 2.625-1.898 3.922-3.752 3.922z"/></g><g><path fill="#fff" d="M39.707 33.405c0-1.854 1.329-3.751 3.954-3.751 2.713 0 3.978 1.897 3.978 3.75 0 1.866-1.405 3.753-4.009 3.753-2.626 0-3.923-1.897-3.923-3.752z"/></g><g><path fill="#fff" d="M57.33 50.27c-1.854 0-3.752-1.329-3.752-3.955 0-2.712 1.898-3.977 3.752-3.977 1.865 0 3.752 1.405 3.752 4.01 0 2.625-1.898 3.922-3.752 3.922z"/></g><g><path fill="#fff" d="M39.707 59.203c0-1.854 1.329-3.751 3.954-3.751 2.713 0 3.978 1.897 3.978 3.75 0 1.866-1.405 3.753-4.009 3.753-2.626 0-3.923-1.898-3.923-3.752z"/></g></g></svg>