<svg xmlns="http://www.w3.org/2000/svg" width="89" height="93" viewBox="0 0 89 93"><g><g><path fill="#312F8A" d="M44.563 92.488C22.975 92.488.88 77.01.88 46.436.88 14.847 22.976.12 44.563.12c21.72 0 43.694 16.353 43.694 46.682 0 30.582-22.096 45.686-43.694 45.686z"/></g><g><path fill="#fff" d="M44.568 50.27c-1.854 0-3.75-1.329-3.75-3.955 0-2.712 1.896-3.977 3.75-3.977 1.865 0 3.752 1.405 3.752 4.01 0 2.625-1.898 3.922-3.752 3.922z"/></g><g><path fill="#fff" d="M44.568 37.371c-1.854 0-3.75-1.329-3.75-3.954 0-2.713 1.896-3.978 3.75-3.978 1.865 0 3.752 1.405 3.752 4.01 0 2.625-1.898 3.922-3.752 3.922z"/></g><g><path fill="#fff" d="M58.226 50.27c-1.854 0-3.751-1.329-3.751-3.955 0-2.712 1.897-3.977 3.75-3.977 1.866 0 3.753 1.405 3.753 4.01 0 2.625-1.897 3.922-3.752 3.922z"/></g><g><path fill="#fff" d="M58.226 37.384c-1.854 0-3.751-1.33-3.751-3.955 0-2.712 1.897-3.977 3.75-3.977 1.866 0 3.753 1.405 3.753 4.009 0 2.626-1.897 3.923-3.752 3.923z"/></g><g><path fill="#fff" d="M30.91 63.169c-1.853 0-3.75-1.329-3.75-3.955 0-2.712 1.897-3.977 3.75-3.977 1.866 0 3.753 1.405 3.753 4.009 0 2.626-1.898 3.923-3.752 3.923z"/></g><g><path fill="#fff" d="M44.568 63.169c-1.854 0-3.75-1.329-3.75-3.955 0-2.712 1.896-3.977 3.75-3.977 1.865 0 3.752 1.405 3.752 4.009 0 2.626-1.898 3.923-3.752 3.923z"/></g><g><path fill="#fff" d="M58.226 63.169c-1.854 0-3.751-1.329-3.751-3.955 0-2.712 1.897-3.977 3.75-3.977 1.866 0 3.753 1.405 3.753 4.009 0 2.626-1.897 3.923-3.752 3.923z"/></g><g opacity=".3"><g opacity=".3"><path fill="#fff" d="M34.642 33.43c-.016-2.584-1.893-3.978-3.75-3.978-1.854 0-3.752 1.265-3.752 3.977v12.918h.002c.015 2.604 1.903 3.923 3.75 3.923 1.854 0 3.75-1.297 3.75-3.923V33.43z"/></g></g></g></svg>