<svg xmlns="http://www.w3.org/2000/svg" width="88" height="93" viewBox="0 0 88 93"><g><g><path fill="#cb2036" d="M44.135 92.488C22.547 92.488.45 77.01.45 46.436.45 14.847 22.547.12 44.135.12c21.72 0 43.693 16.353 43.693 46.682 0 30.582-22.095 45.686-43.693 45.686z"/></g><g opacity=".3"><g opacity=".3"><path fill="#fff" d="M40.39 59.192c.016 2.583 1.893 3.977 3.75 3.977 1.854 0 3.752-1.265 3.752-3.977V33.389h-.002c-.016-2.604-1.903-3.923-3.75-3.923-1.854 0-3.751 1.297-3.751 3.923v25.803z"/></g></g><g><path fill="#fff" d="M44.14 29.44c1.855 0 3.752 1.328 3.752 3.954 0 2.713-1.897 3.978-3.751 3.978-1.866 0-3.752-1.406-3.752-4.01 0-2.626 1.897-3.923 3.752-3.923z"/></g><g opacity=".3"><g opacity=".3"><path fill="#fff" d="M31.252 42.554c-2.584.015-3.978 1.893-3.978 3.75 0 1.854 1.265 3.751 3.978 3.751h25.802c2.605-.016 3.924-1.904 3.924-3.75 0-1.855-1.298-3.752-3.924-3.752H31.252z"/></g></g><g><path fill="#fff" d="M61.005 46.305c0 1.854-1.33 3.75-3.955 3.75-2.713 0-3.978-1.896-3.978-3.75 0-1.865 1.405-3.752 4.009-3.752 2.626 0 3.924 1.898 3.924 3.752z"/></g></g></svg>