<svg xmlns="http://www.w3.org/2000/svg" width="542" height="770" viewBox="0 0 542 770"><g><g><path fill="#b32036" d="M450.55 185.303c-2.34-68.48-14.85-130.33-35.36-185.3h-235.6c37.78 49.92 58.98 114.4 62.82 185.3.43 7.83.64 15.74.64 23.71 0 155.88-82.82 280.57-243.05 298.48v214.01c229.33-17.93 450.96-187.59 450.96-512.49 0-7.99-.14-15.89-.41-23.71z"/></g><g><path fill="#cb2036" d="M501.265 34.019H260.41c48.613 56.659 73.58 135.164 73.58 221.575 0 168.59-96.882 300.703-283.781 300.703-17.546 0-34.26-1.18-50.21-3.537v214.43a507.17 507.17 0 0 0 50.21 2.497c243.074 0 491.694-169.977 491.694-514.093 0-83.36-14.771-157.356-40.64-221.575z"/></g></g></svg>