<svg xmlns="http://www.w3.org/2000/svg" width="619" height="12" viewBox="0 0 619 12"><g><g><path fill="#cb2036" d="M337.288.808c-2.999 0-5.547 1.597-5.547 5.524 0 3.82 2.634 5.611 5.547 5.611s5.61-1.639 5.61-5.61c0-3.799-2.697-5.525-5.61-5.525z"/></g><g><path fill="#cb2036" d="M282.078.808c-2.999 0-5.547 1.597-5.547 5.524 0 3.82 2.634 5.611 5.547 5.611 2.914 0 5.611-1.639 5.611-5.61 0-3.799-2.697-5.525-5.61-5.525z"/></g><g><path fill="#cb2036" d="M226.87.808c-3 0-5.549 1.597-5.549 5.524 0 3.82 2.634 5.611 5.548 5.611 2.913 0 5.61-1.639 5.61-5.61 0-3.799-2.697-5.525-5.61-5.525z"/></g><g><path fill="#cb2036" d="M171.66.808c-3 0-5.549 1.597-5.549 5.524 0 3.82 2.635 5.611 5.548 5.611 2.913 0 5.61-1.639 5.61-5.61 0-3.799-2.697-5.525-5.61-5.525z"/></g><g><path fill="#cb2036" d="M116.45.808c-3 0-5.548 1.597-5.548 5.524 0 3.82 2.634 5.611 5.547 5.611s5.61-1.639 5.61-5.61c0-3.799-2.697-5.525-5.61-5.525z"/></g><g><path fill="#cb2036" d="M61.24.808c-3 0-5.548 1.597-5.548 5.524 0 3.82 2.634 5.611 5.547 5.611s5.61-1.639 5.61-5.61c0-3.799-2.697-5.525-5.61-5.525z"/></g><g><path fill="#cb2036" d="M6.03.808c-3 0-5.548 1.597-5.548 5.524 0 3.82 2.634 5.611 5.548 5.611 2.913 0 5.61-1.639 5.61-5.61 0-3.799-2.697-5.525-5.61-5.525z"/></g><g><path fill="#cb2036" d="M613.337.808c-3 0-5.548 1.597-5.548 5.524 0 3.82 2.635 5.611 5.548 5.611 2.913 0 5.61-1.639 5.61-5.61 0-3.799-2.697-5.525-5.61-5.525z"/></g><g><path fill="#cb2036" d="M558.127.808c-2.999 0-5.547 1.597-5.547 5.524 0 3.82 2.634 5.611 5.547 5.611s5.61-1.639 5.61-5.61c0-3.799-2.697-5.525-5.61-5.525z"/></g><g><path fill="#cb2036" d="M502.917.808c-2.999 0-5.547 1.597-5.547 5.524 0 3.82 2.634 5.611 5.547 5.611 2.914 0 5.61-1.639 5.61-5.61 0-3.799-2.696-5.525-5.61-5.525z"/></g><g><path fill="#cb2036" d="M447.707.808c-2.999 0-5.547 1.597-5.547 5.524 0 3.82 2.634 5.611 5.547 5.611 2.914 0 5.611-1.639 5.611-5.61 0-3.799-2.697-5.525-5.611-5.525z"/></g><g><path fill="#cb2036" d="M392.498.808c-3 0-5.548 1.597-5.548 5.524 0 3.82 2.635 5.611 5.548 5.611 2.913 0 5.61-1.639 5.61-5.61 0-3.799-2.697-5.525-5.61-5.525z"/></g></g></svg>