<svg xmlns="http://www.w3.org/2000/svg" width="771" height="11" viewBox="0 0 771 11"><g><g><path fill="#cb2036" d="M493.733.163c-2.945 0-5.447 1.568-5.447 5.425 0 3.751 2.586 5.51 5.447 5.51 2.86 0 5.509-1.61 5.509-5.51 0-3.73-2.648-5.425-5.51-5.425z"/></g><g><path fill="#cb2036" d="M439.52.163c-2.945 0-5.447 1.568-5.447 5.425 0 3.751 2.586 5.51 5.447 5.51 2.86 0 5.509-1.61 5.509-5.51 0-3.73-2.65-5.425-5.51-5.425z"/></g><g><path fill="#cb2036" d="M385.306.163c-2.945 0-5.447 1.568-5.447 5.425 0 3.751 2.586 5.51 5.447 5.51 2.86 0 5.509-1.61 5.509-5.51 0-3.73-2.648-5.425-5.51-5.425z"/></g><g><path fill="#cb2036" d="M331.092.163c-2.945 0-5.447 1.568-5.447 5.425 0 3.751 2.587 5.51 5.447 5.51s5.509-1.61 5.509-5.51c0-3.73-2.648-5.425-5.51-5.425z"/></g><g><path fill="#cb2036" d="M276.878.163c-2.945 0-5.447 1.568-5.447 5.425 0 3.751 2.586 5.51 5.447 5.51s5.51-1.61 5.51-5.51c0-3.73-2.649-5.425-5.51-5.425z"/></g><g><path fill="#cb2036" d="M222.665.163c-2.945 0-5.447 1.568-5.447 5.425 0 3.751 2.586 5.51 5.447 5.51 2.86 0 5.509-1.61 5.509-5.51 0-3.73-2.648-5.425-5.51-5.425z"/></g><g><path fill="#cb2036" d="M168.451.163c-2.945 0-5.447 1.568-5.447 5.425 0 3.751 2.586 5.51 5.447 5.51 2.86 0 5.51-1.61 5.51-5.51 0-3.73-2.65-5.425-5.51-5.425z"/></g><g><path fill="#cb2036" d="M764.802.163c-2.945 0-5.447 1.568-5.447 5.425 0 3.751 2.586 5.51 5.447 5.51 2.86 0 5.509-1.61 5.509-5.51 0-3.73-2.65-5.425-5.51-5.425z"/></g><g><path fill="#cb2036" d="M710.588.163c-2.945 0-5.447 1.568-5.447 5.425 0 3.751 2.586 5.51 5.447 5.51 2.86 0 5.509-1.61 5.509-5.51 0-3.73-2.65-5.425-5.51-5.425z"/></g><g><path fill="#cb2036" d="M656.374.163c-2.945 0-5.447 1.568-5.447 5.425 0 3.751 2.586 5.51 5.447 5.51s5.509-1.61 5.509-5.51c0-3.73-2.648-5.425-5.509-5.425z"/></g><g><path fill="#cb2036" d="M602.16.163c-2.945 0-5.447 1.568-5.447 5.425 0 3.751 2.587 5.51 5.447 5.51 2.861 0 5.51-1.61 5.51-5.51 0-3.73-2.649-5.425-5.51-5.425z"/></g><g><path fill="#cb2036" d="M547.947.163c-2.945 0-5.447 1.568-5.447 5.425 0 3.751 2.586 5.51 5.447 5.51 2.86 0 5.509-1.61 5.509-5.51 0-3.73-2.648-5.425-5.51-5.425z"/></g><g><path fill="#cb2036" d="M114.237.163c-2.945 0-5.447 1.568-5.447 5.425 0 3.751 2.587 5.51 5.447 5.51 2.861 0 5.51-1.61 5.51-5.51 0-3.73-2.649-5.425-5.51-5.425z"/></g><g><path fill="#cb2036" d="M60.024.163c-2.945 0-5.447 1.568-5.447 5.425 0 3.751 2.586 5.51 5.447 5.51 2.86 0 5.509-1.61 5.509-5.51 0-3.73-2.648-5.425-5.51-5.425z"/></g><g><path fill="#cb2036" d="M5.81.163C2.865.163.363 1.731.363 5.588c0 3.751 2.586 5.51 5.447 5.51s5.51-1.61 5.51-5.51c0-3.73-2.649-5.425-5.51-5.425z"/></g></g></svg>