<svg xmlns="http://www.w3.org/2000/svg" width="525" height="287" viewBox="0 0 525 287"><g><g><path fill="#fff" d="M120.586 181.956c-.138-2.34-1.393-4.22-4.761-4.22-2.29 0-4.548 1.045-6.4 2.131l-1.475-2.576c2.126-1.312 5.275-2.684 8.562-2.684 5.22 0 7.935 2.997 7.935 7.998v11.404h-3.188l-.308-2.456h-.123c-2.026 1.584-4.66 2.921-7.251 2.921-3.62 0-6.404-2.129-6.404-5.464 0-4.247 3.852-6.335 13.413-7.054zm0 2.472c-7.44.534-9.642 2.03-9.642 4.292 0 1.9 1.706 2.687 3.732 2.687 2.023 0 3.949-.95 5.91-2.544z"/></g><g><path fill="#fff" d="M132.834 175.073h14.982v3.082h-11.121v15.854h-3.861z"/></g><g><path fill="#fff" d="M154.156 175.073h3.156l.308 2.287h.123c1.694-1.601 4.08-2.752 6.31-2.752 5.003 0 7.767 3.78 7.767 9.655 0 6.445-4.03 10.21-8.507 10.21-1.73 0-3.77-.854-5.388-2.346h-.092l.183 3.45v6.167h-3.86zm8.857 2.754c-1.55 0-3.278.766-4.997 2.53v8.96c1.571 1.422 3.352 1.938 4.56 1.938 3.013 0 5.291-2.501 5.291-6.978 0-3.966-1.44-6.45-4.854-6.45z"/></g><g><path fill="#fff" d="M190.338 181.956c-.138-2.34-1.393-4.22-4.761-4.22-2.29 0-4.548 1.045-6.4 2.131l-1.475-2.576c2.126-1.312 5.276-2.684 8.562-2.684 5.22 0 7.935 2.997 7.935 7.998v11.404h-3.188l-.308-2.456h-.123c-2.026 1.584-4.66 2.921-7.251 2.921-3.62 0-6.404-2.129-6.404-5.464 0-4.247 3.852-6.335 13.413-7.054zm0 2.472c-7.44.534-9.642 2.03-9.642 4.292 0 1.9 1.706 2.687 3.732 2.687 2.023 0 3.949-.95 5.91-2.544z"/></g><g><path fill="#fff" d="M200.658 175.073h3.156l.308 2.287h.123c1.693-1.601 4.08-2.752 6.309-2.752 5.004 0 7.768 3.78 7.768 9.655 0 6.445-4.031 10.21-8.508 10.21-1.73 0-3.77-.854-5.387-2.346h-.093l.184 3.45v6.167h-3.86zm8.857 2.754c-1.55 0-3.278.766-4.997 2.53v8.96c1.57 1.422 3.352 1.938 4.559 1.938 3.014 0 5.292-2.501 5.292-6.978 0-3.966-1.441-6.45-4.854-6.45z"/></g><g><path fill="#fff" d="M223.91 175.073h3.86v7.454h8.742v-7.454h3.861v18.936h-3.86v-8.097h-8.744v8.097h-3.86z"/></g><g><path fill="#fff" d="M260.09 181.956c-.138-2.34-1.393-4.22-4.761-4.22-2.29 0-4.547 1.045-6.4 2.131l-1.474-2.576c2.125-1.312 5.275-2.684 8.562-2.684 5.219 0 7.933 2.997 7.933 7.998v11.404h-3.187l-.307-2.456h-.124c-2.025 1.584-4.66 2.921-7.251 2.921-3.62 0-6.404-2.129-6.404-5.464 0-4.247 3.852-6.335 13.413-7.054zm0 2.472c-7.44.534-9.642 2.03-9.642 4.292 0 1.9 1.706 2.687 3.732 2.687 2.023 0 3.949-.95 5.91-2.544z"/></g><g><path fill="#fff" d="M107.015 224.699c0-12.218 4.8-14.551 12.09-15.638 2.307-.31 3.075-.494 4.284-1.068l.767 3.434c-1.039.727-2.536 1.034-4.256 1.299-7.04 1.01-9.177 1.64-9.177 12.782 0 4.976 1.917 8.068 5.508 8.068 3.012 0 4.733-2.65 4.733-6.64 0-3.76-1.708-5.896-4.772-5.896-1.754 0-3.726.73-5.5 3.174l-.153-2.721c1.636-2.225 4.122-3.376 6.7-3.376 4.442 0 7.71 3.216 7.71 8.82 0 5.985-3.687 9.812-8.672 9.812-5.868 0-9.262-4.571-9.262-12.05z"/></g><g><path fill="#fff" d="M139.35 220.429h-8.466v-3.081h12.327v18.936h-3.861zm1.619-12.285c1.662 0 2.876 1.124 2.876 2.756 0 1.664-1.214 2.74-2.876 2.74-1.661 0-2.876-1.076-2.876-2.74 0-1.632 1.215-2.756 2.876-2.756z"/></g><g><path fill="#fff" d="M153.02 233.927l1.612-2.484c2.163 1.703 4.435 2.285 6.623 2.285 3.835 0 5.856-1.093 5.856-3.06 0-1.923-1.815-2.752-5.22-2.752h-3.61v-2.827h3.174c3.22 0 4.83-.938 4.83-2.624 0-1.704-1.61-2.594-4.976-2.594-2.583 0-4.327.633-6.333 2.053l-1.52-2.53c2.279-1.625 4.846-2.512 8.097-2.512 4.984 0 8.471 1.635 8.471 5.186 0 1.787-1.037 3.318-3.379 4.142v.155c2.623.66 4.266 1.97 4.266 4.653 0 3.684-3.817 5.731-9.312 5.731-3.077 0-5.804-.644-8.579-2.822z"/></g><g><path fill="#fff" d="M177.407 217.348h3.86v7.454h8.744v-7.454h3.86v18.936h-3.86v-8.096h-8.744v8.096h-3.86z"/></g><g><path fill="#fff" d="M199.769 226.784c0-6.167 4.646-9.902 9.712-9.902 5.557 0 8.72 3.65 8.72 8.939 0 .815-.1 1.6-.177 2.096h-15.581v-2.828h13.176l-.836.943c0-4.102-1.984-6.16-5.195-6.16-3.315 0-6.033 2.448-6.033 6.912 0 4.652 2.917 6.944 6.987 6.944 2.117 0 3.828-.64 5.533-1.667l1.35 2.44c-1.946 1.284-4.465 2.248-7.372 2.248-5.745 0-10.284-3.657-10.284-9.965z"/></g><g><path fill="#fff" d="M223.484 226.847c0-6.338 4.907-9.965 10.662-9.965 3.054 0 5.381 1.197 6.946 2.715l-1.856 2.438c-1.529-1.252-3.084-1.979-4.923-1.979-4.073 0-6.876 2.711-6.876 6.791 0 4.048 2.764 6.73 6.77 6.73 2.245 0 4.11-1.004 5.617-2.228l1.66 2.484c-2.152 1.882-4.843 2.916-7.589 2.916-5.934 0-10.41-3.626-10.41-9.902z"/></g><g><path fill="#fff" d="M108.159 259.622h3.86v7.578h4.475l-.821 1.537 3.296.672.418-.773 6.794 9.923h-4.26l-5.433-8.278h-4.468v8.278h-3.861zm10.244 7.578l.984 1.436 1.814-3.355c1.069-2.01 1.679-2.43 2.64-2.43.332 0 .562.085.849.169l.629-3.601c-.375-.177-.877-.262-1.4-.262-2.266 0-3.605.807-5.281 4.03l-2.144 4.013z"/></g><g><path fill="#fff" d="M139.138 259.157c4.99 0 9.432 3.627 9.432 9.965 0 6.276-4.442 9.902-9.432 9.902s-9.432-3.626-9.432-9.902c0-6.338 4.442-9.965 9.432-9.965zm0 3.174c-3.351 0-5.48 2.71-5.48 6.79 0 4.05 2.129 6.73 5.48 6.73 3.35 0 5.479-2.68 5.479-6.73 0-4.08-2.128-6.79-5.48-6.79z"/></g><g><path fill="#fff" d="M154.156 259.622h3.86v7.454h8.744v-7.454h3.86v18.937h-3.86v-8.097h-8.744v8.097h-3.86z"/></g><g><path fill="#fff" d="M183.872 280.569l.107-2.875c-.86.66-1.83 1.33-3.057 1.33-3.474 0-5.77-3.623-5.77-9.902 0-6.167 2.766-9.965 5.77-9.965 1.278 0 2.218.59 3.057 1.309l-.107-2.853v-6.532h3.534v6.532l-.106 2.952c.937-.795 2.164-1.408 3.382-1.408 3.415 0 5.445 3.78 5.445 9.655 0 6.445-2.76 10.212-5.83 10.212-1.04 0-2.081-.576-2.997-1.308l.106 2.853v5.725h-3.534zm.107-17.082c-.681-.752-1.423-1.142-2.252-1.142-1.735 0-2.934 2.596-2.934 6.763 0 4.276 1.02 6.728 3.089 6.728.798 0 1.416-.383 2.097-1.22zm5.604-1.142c-.765 0-1.524.398-2.283 1.188v11.162c.75.814 1.566 1.14 2.16 1.14 1.904 0 3.026-2.531 3.026-7.01 0-3.965-.731-6.48-2.903-6.48z"/></g><g><path fill="#fff" d="M199.769 269.058c0-6.167 4.646-9.9 9.712-9.9 5.557 0 8.72 3.65 8.72 8.937 0 .816-.1 1.6-.177 2.096h-15.581v-2.828h13.176l-.836.943c0-4.102-1.984-6.16-5.195-6.16-3.315 0-6.033 2.448-6.033 6.912 0 4.652 2.917 6.944 6.987 6.944 2.117 0 3.828-.639 5.533-1.667l1.35 2.44c-1.946 1.284-4.465 2.248-7.372 2.248-5.745 0-10.284-3.657-10.284-9.965z"/></g><g><path fill="#fff" d="M223.91 259.622h3.155l.307 2.287h.124c1.693-1.601 4.08-2.752 6.308-2.752 5.005 0 7.77 3.78 7.77 9.655 0 6.445-4.032 10.212-8.508 10.212-1.73 0-3.77-.855-5.388-2.348h-.093l.184 3.45v6.168h-3.86zm8.856 2.754c-1.55 0-3.278.766-4.997 2.53v8.96c1.571 1.422 3.351 1.938 4.558 1.938 3.015 0 5.293-2.5 5.293-6.978 0-3.966-1.442-6.45-4.854-6.45z"/></g><g><path fill="#fff" d="M246.27 269.058c0-6.167 4.645-9.9 9.712-9.9 5.556 0 8.72 3.65 8.72 8.937 0 .816-.099 1.6-.178 2.096h-15.581v-2.828h13.177l-.836.943c0-4.102-1.984-6.16-5.195-6.16-3.314 0-6.033 2.448-6.033 6.912 0 4.652 2.917 6.944 6.987 6.944 2.117 0 3.827-.639 5.533-1.667l1.351 2.44c-1.948 1.284-4.466 2.248-7.373 2.248-5.745 0-10.284-3.657-10.284-9.965z"/></g><g><path fill="#fff" d="M270.41 259.622h3.86v7.454h8.744v-7.454h3.86v18.937h-3.86v-8.097h-8.744v8.097h-3.86z"/></g><g><path fill="#fff" d="M293.66 259.622h3.894v15.824h8.208v-15.824h3.86v15.824h-2.277v3.113H293.66zm15.962 18.937h-.877v6.666h3.341l.367-7.283v-2.496h-2.83z"/></g><g><path fill="#fff" d="M325.356 262.703h-8.467v-3.08h12.328v18.935h-3.861zm1.619-12.284c1.66 0 2.876 1.123 2.876 2.755 0 1.664-1.215 2.74-2.876 2.74-1.661 0-2.877-1.076-2.877-2.74 0-1.632 1.216-2.755 2.877-2.755z"/></g><g><path fill="#fff" d="M344.166 271.11c-2.486-.72-4.494-2.516-4.494-5.704 0-4.314 3.185-5.784 7.342-5.784h9.423v18.937h-3.86v-7.074h-4.51l.643-.901-3.309-1.152zm-1.156 7.449h-4.32l5.476-7.448a9.922 9.922 0 0 0 2.743.374h1.157zm9.567-9.916V262.6h-4.97c-2.627 0-4.128.824-4.128 2.905 0 2.042 1.501 3.138 4.127 3.138z"/></g><g><path fill="#cb2036" d="M.764 52.002C.764 17.782 24.7 1.83 48.086 1.83c23.528 0 47.333 17.715 47.333 50.57 0 33.13-23.937 49.49-47.333 49.49C24.7 101.89.764 85.12.764 52.002zm20.017.396c0 15.822 9.326 28.946 27.305 28.946 17.99 0 27.316-12.717 27.316-28.946 0-16.493-9.458-30.013-27.316-30.013-17.98 0-27.305 13.256-27.305 30.013z"/></g><g><path fill="#cb2036" d="M111.679 39.13l62.495-35.54v22.45l-45.032 26.095c15.15 8.918 30.025 17.979 45.032 26.909v22.581L111.459 64.51a14.672 14.672 0 0 1 .22-25.38z"/></g><g><path fill="#fff" d="M285.07 81.609h-37.589l-7.167 17.715h-20.688l39.35-95.062h16.23l37.588 95.062h-21.228zm-30.42-19.202h23.252l-11.494-29.75z"/></g><g><path fill="#fff" d="M325.962 118.393l3.919-13.663c5.274 3.116 13.257 5.813 18.662 5.813 5.813 0 16.637-4.591 16.637-12.838V94.05c-3.787 3.655-9.337 6.221-14.611 6.221-16.768 0-32.854-12.442-32.854-33.13 0-22.714 17.308-35.695 31.236-35.695 5.142 0 12.705 2.698 16.229 6.893v-5.681h19.597v61.931c0 24.344-19.597 32.315-34.34 32.315-9.875 0-19.333-4.723-24.475-8.511zm11.219-52.199c0 8.654 5.681 16.769 14.61 16.769 5.274 0 10.141-2.565 13.389-6.221V56.461c-3.248-3.38-8.247-5.813-13.389-5.813-8.929 0-14.61 7.167-14.61 15.546z"/></g><g><path fill="#fff" d="M442.559 54.16c-1.08-1.894-4.998-3.788-7.84-3.788-5.55 0-11.087 5.407-13.927 10.824v38.128h-19.477V32.658h19.477v7.707c3.105-3.777 8.918-9.05 15.414-9.05 3.512 0 6.76.54 8.51 1.486l-.54 21.36z"/></g><g><path fill="#fff" d="M454.483 66.194c0-24.883 16.9-35.155 35.155-35.155 18.255 0 34.759 11.22 34.759 35.155 0 24.607-15.964 34.616-34.76 34.616-18.254 0-35.154-10.812-35.154-34.616zm19.069-.132c0 8.246 5.946 15.414 16.086 15.414 10.009 0 15.954-6.892 15.954-15.414 0-8.786-5.945-16.097-15.954-16.097-10.14 0-16.086 7.167-16.086 16.097z"/></g><g><path fill="#cb2036" d="M113.57 22.503c-5.061 0-10.242-3.63-10.242-10.798 0-7.407 5.18-10.86 10.243-10.86 5.093 0 10.245 3.835 10.245 10.946 0 7.17-5.181 10.712-10.245 10.712z"/></g><g><path fill="#cb2036" d="M113.57 102.874c-5.061 0-10.242-3.63-10.242-10.798 0-7.407 5.18-10.86 10.243-10.86 5.093 0 10.245 3.835 10.245 10.946 0 7.17-5.181 10.712-10.245 10.712z"/></g></g></svg>