<svg xmlns="http://www.w3.org/2000/svg" width="41" height="33" viewBox="0 0 41 33"><g><g><path fill="#bbbcbe" d="M6.608 32.22v-1.875c0-.57-.239-.887-.739-.887a.79.79 0 0 0-.824.894v1.867h-.74v-1.874c0-.57-.247-.887-.733-.887a.79.79 0 0 0-.824.894v1.853h-.74v-3.368h.733v.415c.217-.329.592-.519.986-.5.453-.019.88.211 1.113.6.256-.4.71-.63 1.184-.6a1.254 1.254 0 0 1 1.324 1.339v2.114zM18.3 29.505h-1.197v1.536c0 .338.133.564.486.564a1.36 1.36 0 0 0 .648-.19l.211.626a1.713 1.713 0 0 1-.916.261c-.866 0-1.169-.465-1.169-1.247v-1.55h-.684v-.669h.67v-1.02h.74v1.02h1.205zm6.228-.767c.178.001.354.031.522.092l-.226.704a1.194 1.194 0 0 0-.458-.085c-.465 0-.704.31-.704.867v1.888h-.733v-3.368h.726v.41a.995.995 0 0 1 .888-.495zm-9.757.958a2.17 2.17 0 0 0-1.057-.289c-.402 0-.64.17-.64.394 0 .226.252.29.57.331l.352.05c.733.106 1.176.366 1.176 1.007 0 .642-.564 1.1-1.536 1.1a2.433 2.433 0 0 1-1.458-.437l.352-.57c.324.24.718.363 1.12.351.5 0 .77-.148.77-.409 0-.189-.192-.296-.593-.35l-.353-.05c-.754-.107-1.162-.445-1.162-.994 0-.669.556-1.079 1.41-1.079.481-.016.958.106 1.373.353zm19.935-.958c.177.001.354.031.521.092l-.225.704a1.2 1.2 0 0 0-.458-.085c-.465 0-.705.31-.705.867v1.888h-.732v-3.368h.725v.41a.995.995 0 0 1 .888-.495zM25.28 30.5a1.701 1.701 0 0 1 1.796-1.761 1.76 1.76 0 0 1 1.212.401l-.352.592a1.476 1.476 0 0 0-.88-.303 1.081 1.081 0 0 0 0 2.155c.318-.002.627-.109.88-.302l.352.592a1.76 1.76 0 0 1-1.212.401 1.701 1.701 0 0 1-1.796-1.761zm6.862 1.691h-.733v-.409a1.274 1.274 0 0 1-1.056.493 1.761 1.761 0 1 1 0-3.523 1.28 1.28 0 0 1 1.056.494v-.409h.733zm-2.726-1.677a1.012 1.012 0 0 0 1.021 1.078 1.019 1.019 0 1 0-1.02-1.078zm-8.832-1.755c.944 0 1.6.705 1.6 1.762v.282H19.68a.934.934 0 0 0 1.008.824 1.6 1.6 0 0 0 .98-.352l.352.543c-.394.32-.892.483-1.399.457a1.761 1.761 0 0 1-.05-3.523zm-.024.65a.865.865 0 0 0-.895.816h1.761a.835.835 0 0 0-.853-.817zm18.37 2.782h-.704v-.409a1.277 1.277 0 0 1-1.057.493 1.76 1.76 0 1 1 0-3.523c.411-.014.804.17 1.057.494v-1.76h.704zm1.357-.45a.336.336 0 0 1 .183.177.324.324 0 0 1-.074.365.39.39 0 0 1-.109.07.329.329 0 0 1-.134.028.351.351 0 0 1-.317-.205.324.324 0 0 1 .074-.366.34.34 0 0 1 .251-.095c.043 0 .086.01.126.025zm-.134.57c.035 0 .07-.008.102-.02a.29.29 0 0 0 .081-.058.262.262 0 0 0 0-.353.248.248 0 0 0-.08-.055.24.24 0 0 0-.103-.022.265.265 0 0 0-.103.022.26.26 0 0 0-.084.055.262.262 0 0 0 0 .353.266.266 0 0 0 .197.078zm.021-.42a.147.147 0 0 1 .091.028.09.09 0 0 1 .032.075.086.086 0 0 1-.024.063.123.123 0 0 1-.075.031l.103.117h-.08l-.096-.117h-.032v.117h-.067v-.31zm-.078.061v.084h.078a.075.075 0 0 0 .042 0 .036.036 0 0 0 0-.032.036.036 0 0 0 0-.032.075.075 0 0 0-.042 0zm-3.875-1.43a1.012 1.012 0 0 0 1.022 1.078 1.018 1.018 0 1 0-1.022-1.079zm-24.739 1.67h-.733v-.41a1.277 1.277 0 0 1-1.057.493 1.76 1.76 0 1 1 0-3.523c.411-.014.804.17 1.057.494v-.409h.733zm-2.734-1.67A1.01 1.01 0 0 0 9.775 31.6a1.019 1.019 0 1 0-1.02-1.079z"/></g><g><path fill="#bbbcbe" d="M14.852 3.174h11.097v19.942H14.852z"/></g><g><path fill="#bbbcbe" d="M15.557 13.147A12.662 12.662 0 0 1 20.4 3.174C14.894-1.154 6.92-.198 2.594 5.31c-4.328 5.507-3.372 13.48 2.134 17.808a12.684 12.684 0 0 0 15.673 0 12.662 12.662 0 0 1-4.844-9.97z"/></g><g><path fill="#bbbcbe" d="M40.92 13.147c0 7.004-5.678 12.682-12.682 12.682-2.842 0-5.603-.955-7.838-2.712 5.507-4.328 6.463-12.3 2.135-17.808A12.685 12.685 0 0 0 20.4 3.174C25.906-1.155 33.879-.2 38.208 5.306a12.68 12.68 0 0 1 2.712 7.837z"/></g><g><path fill="#bbbcbe" d="M39.709 21.003v-.408h.165v-.085h-.419v.085h.179v.408zm.813 0v-.493h-.127l-.148.352-.148-.352h-.112v.493h.091v-.37l.137.32h.096l.137-.32v.374z"/></g></g></svg>