<svg xmlns="http://www.w3.org/2000/svg" width="791" height="704" viewBox="0 0 791 704"><g><g><path fill="#b32036" d="M716.839 78.926a154.912 154.912 0 0 0-56.807-57.367A154.961 154.961 0 0 0 582.075.531c-30.193 0-83.728.72-83.728.72-20.03 12.848-37.15 54.195-49.683 75.353L78.242 703.405h300.862c87.337-146.289 175.513-292.083 262.56-439.948L791 619.295v-409.96z"/></g><g><path fill="#cb2036" d="M639.144 79.523a154.912 154.912 0 0 0-56.807-57.366A154.95 154.95 0 0 0 504.38 1.129c-54.794 0-105.511 28.925-133.412 76.072L.547 704.004H239.17c87.337-146.29 175.514-292.084 262.562-439.95l261.582 439.95H791V346.56z"/></g></g></svg>