<svg xmlns="http://www.w3.org/2000/svg" width="77" height="25" viewBox="0 0 77 25"><g><g><path fill="#bbbcbe" d="M30.741 1.021l-3.91 22.944h6.253l3.913-22.944z"/></g><g><path fill="#bbbcbe" d="M21.588 1.047l-6.124 15.647-.653-2.362c-1.208-2.847-4.637-6.935-8.662-9.512l5.599 19.134 6.617-.011 9.848-22.901z"/></g><g><path fill="#bbbcbe" d="M12.437 2.69C12.074 1.291 11.02.874 9.712.824H.018l-.081.457c7.545 1.83 12.537 6.24 14.607 11.543z"/></g><g><path fill="#bbbcbe" d="M49.67 5.42a11.54 11.54 0 0 1 4.682.879l.564.265.846-4.973c-1.238-.465-3.18-.963-5.602-.963-6.18 0-10.535 3.11-10.568 7.57-.04 3.297 3.102 5.137 5.476 6.236 2.437 1.125 3.253 1.84 3.243 2.846-.02 1.536-1.944 2.24-3.74 2.24-2.504 0-3.835-.345-5.888-1.201l-.806-.367-.88 5.136c1.464.642 4.164 1.193 6.968 1.222 6.573 0 10.845-3.076 10.89-7.84.027-2.608-1.641-4.597-5.254-6.23-2.188-1.064-3.526-1.772-3.513-2.846 0-.954 1.135-1.974 3.583-1.974z"/></g><g><path fill="#bbbcbe" d="M76.869 23.979h-5.8s-.576-2.636-.763-3.437c-.91 0-7.29-.01-8.008-.01-.243.619-1.314 3.447-1.314 3.447h-6.567L63.702 2.95c.66-1.495 1.776-1.904 3.277-1.904h4.83zm-7.577-8.143L67.844 9.21l-.422-1.98c-.323.866-.867 2.255-.833 2.192 0 0-1.976 5.096-2.491 6.413z"/></g></g></svg>